<?xml version="1.0" standalone="no"?>
<!DOCTYPE svg PUBLIC "-//W3C//DTD SVG 20010904//EN"
 "http://www.w3.org/TR/2001/REC-SVG-20010904/DTD/svg10.dtd">
<svg version="1.0" xmlns="http://www.w3.org/2000/svg"
 width="2000.000000pt" height="1333.000000pt" viewBox="0 0 2000.000000 1333.000000"
 preserveAspectRatio="xMidYMid meet">
<metadata>
Created by potrace 1.15, written by Peter Selinger 2001-2017
</metadata>
<g transform="translate(0.000000,1333.000000) scale(0.100000,-0.100000)"
fill="#000000" stroke="none">
<path d="M16294 13283 c-4 -27 -7 -55 -6 -63 1 -8 4 -37 7 -64 2 -27 9 -63 14
-80 6 -17 11 -47 13 -66 3 -39 13 -50 43 -50 40 0 95 -21 95 -36 0 -8 6 -17
14 -20 8 -3 11 -15 8 -30 -5 -27 23 -91 48 -111 13 -10 13 -12 -2 -18 -22 -9
-24 -25 -3 -25 10 0 15 -11 15 -35 0 -32 -2 -35 -30 -35 -20 0 -30 5 -30 15 0
8 -6 15 -14 15 -7 0 -19 6 -25 14 -7 8 -31 18 -54 21 -23 4 -62 18 -87 31 -25
13 -51 24 -57 24 -7 0 -13 4 -13 9 0 5 -13 19 -29 30 l-29 21 -59 -22 c-71
-26 -79 -32 -87 -63 -3 -13 -20 -46 -37 -74 -35 -56 -52 -115 -50 -178 1 -40
-15 -83 -70 -186 -13 -24 -30 -39 -47 -43 -15 -4 -42 -18 -60 -32 -28 -20 -54
-27 -160 -38 -70 -8 -136 -17 -147 -20 -21 -6 -74 -62 -76 -79 -1 -5 -3 -24
-5 -42 -4 -33 16 -63 41 -63 20 0 85 -59 85 -76 0 -8 4 -14 10 -14 12 0 51
-75 43 -84 -4 -3 -1 -6 5 -6 17 0 12 -131 -5 -137 -7 -3 -13 -19 -13 -37 0
-20 -7 -35 -20 -44 -11 -7 -20 -17 -20 -23 0 -6 -6 -17 -14 -25 -24 -23 -12
-47 30 -61 21 -8 49 -25 62 -38 13 -14 27 -25 32 -25 6 0 10 -7 10 -15 0 -11
11 -15 38 -15 49 0 67 -20 82 -85 6 -28 21 -66 34 -85 13 -20 27 -51 31 -70 4
-19 11 -39 15 -45 4 -5 11 -31 14 -57 4 -26 11 -50 17 -53 15 -10 11 -38 -17
-106 -23 -56 -62 -108 -82 -109 -4 0 -20 -14 -37 -31 -16 -17 -43 -38 -60 -46
-16 -9 -36 -24 -43 -34 -7 -11 -19 -19 -25 -19 -7 0 -31 -15 -54 -33 -23 -17
-59 -44 -80 -59 -44 -31 -212 -118 -230 -118 -6 0 -24 -6 -40 -14 -15 -8 -44
-21 -63 -30 -19 -8 -81 -40 -138 -70 -56 -30 -106 -56 -110 -56 -4 0 -23 -5
-42 -10 -19 -5 -77 -13 -128 -19 -51 -5 -97 -13 -102 -16 -6 -3 -10 -21 -10
-38 0 -34 -27 -67 -55 -67 -9 0 -24 -14 -34 -31 -17 -27 -91 -78 -91 -62 0 3
-8 -3 -17 -14 -25 -27 -49 -34 -63 -17 -18 21 -81 18 -87 -4 -6 -26 -38 -42
-95 -49 -28 -3 -52 -12 -55 -19 -3 -8 -13 -14 -22 -14 -18 0 -61 -35 -61 -49
0 -5 -25 -21 -55 -36 -43 -21 -60 -36 -77 -68 -11 -23 -29 -53 -39 -66 -11
-13 -19 -31 -19 -41 0 -10 -9 -29 -20 -43 -25 -31 -27 -114 -4 -159 16 -30 15
-32 -13 -58 -39 -37 -88 -61 -107 -54 -9 3 -27 -1 -40 -10 -15 -9 -37 -14 -60
-11 -32 4 -36 2 -47 -29 -11 -30 -43 -56 -68 -56 -4 0 -23 14 -41 30 -41 36
-50 37 -87 6 -36 -30 -139 -66 -190 -66 -47 0 -108 30 -197 97 -75 56 -101 64
-108 35 -3 -9 -22 -26 -44 -37 -21 -11 -48 -29 -59 -40 -11 -12 -40 -27 -64
-35 -24 -8 -45 -20 -48 -27 -5 -14 -40 -13 -135 1 -24 4 -29 0 -36 -27 -4 -16
-16 -35 -27 -41 -10 -6 -29 -21 -41 -33 -11 -13 -26 -23 -33 -23 -6 0 -11 -9
-11 -19 0 -10 -17 -33 -37 -51 -21 -18 -65 -57 -99 -88 -33 -32 -81 -75 -106
-97 -26 -22 -45 -42 -42 -46 2 -3 -7 -16 -21 -29 -28 -27 -36 -58 -40 -155 -1
-40 -5 -77 -9 -83 -4 -7 -3 -19 2 -28 6 -10 5 -33 -1 -58 -5 -22 -10 -47 -10
-54 0 -8 -12 -26 -26 -42 -42 -45 -51 -58 -51 -73 0 -8 -7 -20 -15 -27 -8 -7
-15 -18 -15 -26 0 -7 -9 -18 -20 -24 -11 -6 -20 -18 -20 -28 0 -9 -10 -28 -23
-42 -47 -51 -68 -90 -69 -127 -1 -21 -5 -41 -11 -44 -5 -4 -6 -13 -1 -20 12
-20 11 -42 -4 -61 -10 -11 -10 -18 -2 -23 16 -10 -36 -55 -65 -55 -13 0 -26
-4 -30 -10 -3 -5 -22 -7 -42 -4 -25 3 -42 -1 -55 -12 -11 -10 -18 -12 -18 -6
0 7 -11 12 -24 12 -13 0 -26 6 -29 14 -9 22 -98 -5 -111 -33 -7 -16 -6 -25 2
-30 14 -8 11 -42 -4 -63 -6 -7 -13 -20 -17 -29 -3 -9 -19 -19 -36 -22 -18 -4
-31 -13 -31 -22 0 -8 -9 -15 -20 -15 -12 0 -32 -7 -46 -16 -21 -15 -30 -15
-63 -4 -34 11 -45 10 -87 -6 -27 -10 -51 -21 -54 -25 -3 -3 -16 -9 -30 -13
-19 -6 -21 -5 -10 3 12 9 9 11 -16 11 -17 0 -34 3 -37 7 -15 14 -70 12 -98 -4
-27 -16 -31 -16 -64 0 -19 9 -35 23 -35 32 0 8 -5 15 -11 15 -6 0 -9 6 -6 14
3 8 -3 22 -14 32 -10 9 -19 27 -19 38 0 22 -60 56 -125 72 l-30 8 35 6 35 7
-42 2 c-24 0 -45 0 -48 -1 -2 -2 -11 7 -20 19 -15 21 -55 22 -55 1 0 -5 -4 -7
-9 -3 -5 3 -12 1 -16 -5 -12 -20 -35 -10 -35 15 0 27 -20 41 -45 31 -18 -6 -9
-36 11 -36 8 0 14 -5 14 -11 0 -6 -10 -10 -22 -9 -48 4 -88 0 -88 -10 0 -5 7
-10 15 -10 8 0 15 -4 15 -10 0 -18 -17 -10 -55 27 l-37 36 -32 -17 c-39 -21
-141 -32 -151 -17 -8 13 44 79 63 80 6 1 12 -8 12 -19 0 -22 25 -28 33 -7 3 7
6 5 6 -5 1 -19 14 -21 45 -9 18 7 18 8 -5 25 l-24 18 33 -6 c17 -3 32 -2 32 3
0 11 -34 41 -47 41 -6 0 -13 5 -15 11 -2 5 -22 13 -46 16 -30 4 -42 10 -42 22
0 13 -2 13 -9 2 -5 -7 -7 -21 -4 -30 4 -14 -2 -16 -33 -13 -25 3 -35 1 -30 -7
4 -6 3 -11 -3 -11 -5 0 -11 5 -13 11 -3 9 -11 8 -28 -1 -14 -7 -40 -12 -58
-12 -21 1 -45 -6 -60 -18 -35 -28 -48 -25 -17 4 16 15 22 27 15 31 -5 3 -10 1
-10 -4 0 -6 -15 -11 -34 -11 -38 0 -57 -16 -29 -23 10 -3 3 -5 -15 -6 -18 0
-40 6 -48 14 -21 20 -37 19 -32 -3 4 -14 -1 -18 -21 -19 -22 -1 -23 0 -7 6 14
5 16 10 7 15 -6 4 -18 2 -26 -4 -8 -7 -15 -9 -15 -4 0 5 -12 15 -27 21 -21 10
-28 10 -34 1 -6 -9 -10 -8 -15 5 -4 12 0 23 12 32 18 14 18 14 -3 15 -13 0
-23 -4 -23 -9 0 -5 -13 -4 -30 2 -21 8 -26 14 -19 23 6 8 5 13 -5 17 -8 3 -16
1 -19 -6 -2 -8 -17 -2 -41 17 -34 25 -48 29 -116 31 -43 2 -83 6 -89 10 -6 3
-11 2 -11 -2 0 -5 -30 -7 -67 -5 -63 3 -89 11 -167 48 -16 8 -34 14 -39 14 -6
0 -28 12 -48 26 -20 14 -49 26 -63 28 -15 1 -32 10 -39 18 -11 14 -54 30 -162
59 -22 6 -50 15 -63 20 -13 5 -38 9 -57 9 -19 0 -36 4 -39 8 -3 5 -18 7 -33 5
-15 -3 -41 1 -58 8 -59 24 -122 28 -153 8 -18 -11 -24 -11 -30 -1 -6 8 -40 13
-104 14 -77 2 -94 5 -86 15 14 18 -63 18 -81 1 -10 -11 -16 -8 -29 10 -12 16
-21 19 -28 12 -7 -7 -19 -7 -35 -1 -13 5 -19 10 -14 11 6 1 -15 8 -46 15 -37
9 -67 11 -85 5 -28 -8 -28 -8 -4 -9 20 -1 22 -3 10 -11 -22 -14 -50 -12 -50 4
0 7 -7 19 -15 26 -10 9 -15 9 -15 1 0 -6 -19 -11 -47 -11 -32 0 -43 -3 -34 -9
8 -5 11 -16 8 -24 -3 -9 -1 -18 6 -20 7 -2 10 -7 7 -10 -8 -8 -51 3 -46 12 2
3 -2 14 -9 24 -9 13 -29 18 -76 20 -50 2 -71 8 -96 27 -18 13 -33 30 -33 37 0
7 -11 13 -26 13 -27 0 -54 20 -54 42 -1 9 -5 7 -14 -4 -16 -22 -25 -22 -48 -1
-17 15 -18 15 -18 -2 0 -13 -5 -16 -22 -11 -13 3 -31 6 -40 6 -10 0 -18 5 -18
11 0 11 -24 39 -34 39 -3 0 -6 -9 -6 -21 0 -16 -4 -19 -20 -14 -11 4 -20 2
-20 -4 0 -16 -30 -13 -36 3 -3 8 -14 16 -25 19 -15 4 -19 2 -15 -9 3 -9 -1
-14 -14 -14 -13 0 -20 -7 -20 -20 0 -22 0 -22 -47 -26 -18 -1 -33 2 -33 8 0 6
11 8 25 4 29 -7 29 -6 13 29 -14 30 -24 32 -39 4 -8 -17 -18 -20 -45 -17 -30
4 -34 1 -34 -19 0 -13 -6 -23 -14 -23 -17 0 -28 24 -20 44 3 8 1 23 -5 33 -9
16 -10 14 -11 -11 0 -16 -3 -26 -7 -22 -5 4 -8 13 -8 19 0 16 -47 38 -67 31
-15 -4 -18 1 -18 25 0 24 -4 31 -19 31 -11 0 -23 5 -27 11 -5 8 -9 8 -14 -1
-5 -8 -11 -7 -23 4 -18 18 -40 20 -67 6 -15 -8 -24 -6 -41 11 -11 11 -24 18
-27 14 -4 -3 0 -10 7 -14 9 -6 10 -11 2 -15 -6 -4 -11 -17 -12 -29 0 -21 -1
-21 -10 3 -7 17 -7 32 0 48 9 18 8 24 -4 28 -8 4 -15 12 -15 19 0 8 -5 17 -12
21 -7 5 -8 3 -4 -5 5 -8 0 -14 -14 -18 -13 -4 -19 -11 -16 -20 3 -8 6 -19 6
-24 0 -5 5 -9 10 -9 6 0 10 7 10 15 0 8 5 15 10 15 14 0 12 -19 -4 -35 -15
-16 -36 -2 -36 25 -1 13 -3 12 -14 -2 -7 -10 -21 -18 -30 -18 -20 0 -21 36 -1
44 8 3 15 15 15 27 0 17 -4 20 -22 15 -13 -3 -26 -6 -30 -6 -3 0 -4 -9 -1 -20
5 -20 5 -20 -26 -3 -27 16 -28 18 -11 21 11 2 18 8 15 13 -4 5 -17 6 -31 3
-18 -5 -24 -2 -24 10 0 9 -7 16 -16 16 -11 0 -14 6 -9 20 10 32 -35 25 -69
-10 -16 -17 -38 -30 -48 -30 -16 0 -15 4 9 25 l28 24 -36 -6 c-20 -3 -45 0
-55 6 -17 9 -17 10 -2 11 11 0 15 5 12 15 -4 8 -1 15 5 15 6 0 11 5 11 10 0 6
-6 10 -13 10 -18 0 -49 -34 -40 -43 3 -4 0 -7 -8 -7 -8 0 -19 10 -24 23 -14
31 -51 30 -47 -2 1 -17 -2 -22 -12 -18 -8 3 -31 9 -50 13 -52 9 -45 27 7 20
l42 -7 -39 19 c-45 23 -74 18 -86 -13 -11 -30 -30 -41 -40 -24 -7 10 -14 10
-35 1 -34 -16 -45 -15 -45 2 0 8 15 19 32 26 29 10 31 12 15 21 -9 6 -25 9
-35 8 -40 -4 -46 0 -28 20 15 16 15 22 4 40 -14 22 -33 27 -43 11 -3 -5 -16
-9 -28 -9 -16 1 -17 3 -5 6 9 2 19 11 22 19 4 12 1 14 -14 9 -16 -5 -19 -3
-13 11 5 14 3 16 -11 11 -10 -4 -20 -7 -22 -7 -3 0 -2 -5 1 -11 4 -6 -2 -13
-14 -16 -12 -3 -21 -13 -21 -22 0 -21 -60 46 -60 68 0 9 -5 23 -10 31 -9 13
-12 13 -21 -2 -12 -22 -35 -23 -43 -3 -3 9 0 15 9 15 8 0 15 4 15 9 0 13 -37
24 -50 16 -6 -3 -13 2 -17 11 -4 10 -2 19 5 22 22 7 12 22 -14 22 -14 0 -23 4
-19 10 7 11 -15 13 -39 4 -14 -5 -13 -9 6 -25 16 -15 19 -22 10 -31 -9 -9 -12
-8 -12 5 0 10 -6 20 -14 23 -8 3 -16 15 -19 26 -4 15 -11 19 -23 14 -10 -4
-21 -1 -26 6 -6 10 -13 7 -28 -11 -22 -26 -34 -24 -24 3 3 9 13 16 22 16 12 0
11 4 -6 20 -12 11 -24 20 -27 20 -12 0 -37 -31 -31 -38 4 -3 11 0 16 8 5 8 13
11 17 6 4 -5 2 -11 -4 -13 -7 -3 -13 -11 -13 -18 0 -10 -13 -7 -45 10 -25 14
-52 22 -61 18 -11 -4 -15 0 -14 13 5 42 1 47 -30 41 -25 -6 -30 -3 -30 13 0
25 -37 47 -53 31 -9 -9 -8 -17 1 -31 8 -13 8 -20 2 -20 -6 0 -16 14 -21 30
-12 34 -24 38 -34 13 -6 -15 -9 -13 -20 12 -13 30 -18 22 -16 -25 1 -22 0 -23
-11 -9 -7 8 -21 18 -31 22 -26 10 -20 26 16 43 l32 15 -47 -3 c-41 -3 -47 -1
-42 14 3 11 -2 19 -16 23 -35 11 -57 -2 -57 -35 0 -32 22 -46 57 -35 12 4 20
2 20 -5 0 -7 -16 -10 -43 -8 -41 3 -42 4 -45 41 -2 24 2 43 13 54 9 9 12 19 7
22 -5 3 -11 13 -14 21 -4 11 -9 7 -17 -12 -6 -16 -14 -28 -19 -28 -5 0 -7 -11
-5 -24 5 -26 -14 -46 -22 -23 -4 9 -16 12 -35 9 -18 -3 -30 0 -30 7 0 6 10 11
23 11 12 0 28 9 35 20 12 19 11 20 -13 14 -21 -5 -25 -3 -25 15 0 12 6 21 16
21 9 0 14 6 11 13 -2 6 -14 11 -26 10 -11 -2 -21 2 -21 8 0 5 -5 7 -10 4 -6
-4 -8 -11 -5 -16 4 -5 -5 -9 -19 -9 -14 0 -28 -4 -31 -10 -3 -5 -15 -10 -26
-10 -10 0 -19 5 -19 10 0 6 6 10 13 10 21 0 40 17 32 29 -5 9 -13 8 -31 -4
-17 -11 -35 -14 -59 -9 -23 4 -35 2 -35 -5 0 -6 -4 -11 -10 -11 -5 0 -10 9
-10 19 0 10 -7 21 -15 25 -22 8 -18 40 7 51 12 6 24 16 26 24 3 9 -6 6 -27 -8
-17 -13 -38 -20 -46 -17 -8 3 -24 -5 -36 -17 -20 -22 -21 -22 -35 -3 -17 24
-19 45 -2 28 19 -19 28 -14 28 13 0 27 -9 32 -28 13 -9 -9 -12 -5 -12 21 0 29
-2 32 -15 21 -8 -7 -15 -21 -15 -31 0 -12 -7 -19 -20 -19 -12 0 -24 -9 -29
-22 -11 -32 -23 -6 -24 53 -1 48 -1 48 -21 31 -12 -9 -24 -21 -28 -27 -5 -6
-8 -6 -8 2 0 6 -8 14 -17 16 -15 4 -15 6 4 12 15 5 23 15 22 29 -1 17 -2 17
-6 4 -2 -10 -11 -18 -19 -18 -9 0 -22 -7 -31 -16 -11 -11 -19 -12 -26 -5 -6 6
-19 11 -29 11 -10 0 -18 4 -18 9 0 15 -51 20 -57 5 -8 -22 -25 -16 -18 5 9 29
-13 36 -34 10 -17 -21 -18 -21 -45 -4 -26 18 -27 20 -10 32 11 8 32 11 54 8
35 -6 35 -6 10 9 -30 18 -60 20 -60 5 0 -7 -11 -9 -30 -6 -16 4 -32 2 -35 -3
-3 -6 -15 -10 -25 -10 -17 0 -18 3 -8 25 11 25 41 34 53 15 9 -14 37 -12 33 2
-7 19 -55 27 -82 15 -15 -7 -27 -23 -29 -37 -2 -15 -5 -7 -6 18 -1 34 -4 42
-20 42 -16 0 -21 -8 -24 -42 l-4 -43 -1 46 c-1 31 3 51 13 59 10 9 12 17 6 23
-6 6 -15 4 -26 -7 -19 -19 -48 -8 -65 24 -17 31 -37 25 -32 -10 3 -18 0 -30
-7 -30 -6 0 -11 -4 -11 -10 0 -5 7 -10 15 -10 9 0 12 -6 8 -16 -5 -13 -8 -12
-24 5 -11 11 -19 31 -19 44 0 30 -10 40 -27 26 -7 -6 -13 -7 -13 -2 0 5 -16 7
-35 5 -29 -4 -36 0 -43 19 -12 32 -4 59 15 52 14 -5 32 11 33 29 0 4 -13 6
-30 5 -16 -1 -30 -4 -30 -7 0 -3 -5 -12 -10 -20 -8 -13 -11 -12 -24 5 -15 20
-15 20 -16 -2 0 -14 6 -23 15 -23 19 0 19 -14 0 -30 -10 -9 -15 -9 -15 -1 0 6
-10 11 -21 11 -18 0 -21 5 -17 30 4 24 1 30 -14 30 -10 0 -18 -6 -18 -12 0
-10 -3 -10 -9 0 -6 10 -24 13 -57 10 l-49 -3 2 35 c2 31 2 32 -7 12 -5 -13
-14 -20 -20 -17 -14 9 -13 32 3 38 6 2 8 8 4 13 -4 5 -12 2 -18 -6 -8 -13 -12
-12 -25 5 -16 19 -16 19 -11 -10 l6 -31 -41 38 c-23 21 -47 38 -54 38 -6 0
-14 7 -18 15 -3 8 -11 15 -17 15 -7 0 -18 8 -25 18 -8 10 -13 12 -14 5 0 -21
-27 -15 -33 8 -5 17 -9 19 -26 10 -16 -9 -23 -7 -40 15 -11 14 -22 30 -25 37
-3 8 -9 7 -19 -5 -21 -26 -50 -24 -42 3 6 17 3 20 -17 17 -12 -2 -23 -7 -23
-13 0 -17 -16 -36 -25 -30 -17 11 -5 44 20 56 15 7 20 13 12 16 -7 3 -18 1
-25 -5 -23 -18 -47 -22 -47 -8 0 17 54 40 76 32 9 -3 21 -3 27 1 28 18 -51 18
-102 0 -44 -15 -56 -16 -62 -5 -5 7 -7 19 -4 26 2 7 -4 12 -15 12 -10 0 -24 8
-29 18 -10 16 -10 16 -11 0 0 -9 5 -20 11 -24 8 -4 6 -10 -6 -17 -12 -6 -20
-6 -24 2 -4 7 -16 9 -27 5 -14 -4 -15 -3 -6 4 21 15 32 79 16 93 -11 9 -15 8
-20 -4 -3 -9 -3 -20 0 -26 9 -14 -8 -21 -24 -10 -13 8 -13 10 0 19 13 8 12 10
-2 10 -21 0 -22 4 -8 30 5 10 7 26 3 36 -6 15 -7 14 -15 -6 -6 -16 -14 -21
-27 -17 -12 3 -22 -1 -25 -9 -9 -25 -34 -15 -41 16 -6 27 -35 44 -35 20 0 -5
-5 -10 -10 -10 -6 0 -8 11 -4 25 4 15 2 25 -5 25 -6 0 -11 -7 -11 -15 0 -8 -4
-15 -10 -15 -5 0 -10 6 -10 13 0 18 -28 75 -41 82 -5 4 -9 2 -9 -4 0 -5 6 -11
13 -14 8 -3 5 -12 -10 -28 -26 -26 -43 -18 -25 11 7 11 9 20 5 20 -9 0 -33 48
-33 67 0 10 -5 10 -26 0 l-27 -12 24 -5 c17 -4 24 -13 24 -30 0 -13 -6 -24
-13 -26 -7 -1 -8 0 -2 3 5 2 10 11 10 19 0 10 -14 14 -56 14 -53 0 -56 1 -69
34 -16 38 -53 54 -71 31 -6 -8 -16 -15 -23 -15 -14 0 -15 27 -1 35 6 3 10 14
10 23 0 11 -8 6 -21 -15 -12 -18 -25 -33 -31 -33 -5 0 -6 -4 -3 -10 3 -5 3
-10 -2 -10 -19 1 -28 17 -28 50 0 21 -6 38 -15 42 -12 5 -10 8 8 14 34 10 26
24 -13 24 -38 0 -46 -17 -20 -44 17 -17 20 -36 5 -36 -5 0 -10 7 -10 15 0 8
-7 15 -15 15 -8 0 -15 6 -15 14 0 8 -8 17 -17 21 -17 6 -17 7 1 21 11 7 18 15
15 16 -2 2 -20 12 -39 22 -19 11 -40 27 -47 35 -6 9 -14 13 -18 9 -8 -7 30
-48 45 -48 13 0 13 -27 -1 -35 -9 -6 -28 -1 -101 29 -15 6 -29 20 -30 31 -2
15 -12 21 -40 23 -20 2 -42 10 -48 18 -14 16 -42 18 -56 4 -8 -8 -15 -6 -24 5
-7 8 -10 19 -6 22 4 4 10 3 14 -2 4 -6 26 -11 49 -12 36 -1 43 2 43 17 0 11
-4 21 -10 25 -5 3 -7 13 -4 23 4 11 3 13 -3 6 -12 -17 -64 -20 -92 -5 -17 9
-26 10 -34 2 -18 -18 -27 -13 -27 14 0 14 3 25 6 25 8 0 68 -33 74 -41 3 -4
11 -1 17 7 14 14 0 30 -17 19 -5 -3 -15 3 -22 15 -7 11 -23 20 -36 20 -12 0
-25 7 -28 15 -13 32 -40 15 -58 -35 -15 -43 -20 -48 -32 -36 -8 8 -14 24 -14
35 0 26 -46 77 -53 59 -2 -7 -8 -10 -12 -6 -11 10 17 77 34 82 9 2 5 4 -9 4
-14 -1 -32 2 -41 6 -10 4 -20 3 -24 -3 -3 -6 0 -11 8 -11 10 0 13 -8 9 -25 -6
-31 -20 -32 -27 -2 -5 19 -14 24 -48 26 -54 3 -62 11 -10 11 35 0 54 12 53 33
0 1 -38 2 -85 2 -81 0 -85 -1 -85 -22 0 -13 -4 -23 -10 -23 -5 0 -10 4 -10 9
0 5 -8 17 -17 26 -9 10 -17 27 -18 39 -2 16 -8 20 -25 18 -12 -1 -28 2 -34 7
-14 12 -126 2 -126 -10 0 -5 -10 -9 -22 -9 -21 1 -22 2 -5 14 22 17 22 22 -5
29 -36 10 -12 20 44 18 29 0 67 3 83 8 28 9 27 9 -18 10 -44 1 -46 2 -35 21
16 25 1 41 -17 17 -7 -10 -19 -15 -29 -11 -10 4 -18 0 -22 -10 -7 -19 -34 -22
-34 -3 1 20 26 47 44 47 9 0 16 7 16 15 0 8 9 15 20 15 11 0 20 5 20 10 0 6
-9 10 -20 10 -11 0 -20 5 -20 10 0 6 7 10 15 10 8 0 15 5 15 10 0 6 -7 10 -15
10 -8 0 -15 4 -15 9 0 4 -24 6 -53 4 -47 -4 -50 -3 -34 10 13 10 15 17 7 22
-6 4 -22 -2 -34 -14 -25 -23 -46 -27 -46 -9 0 9 -3 9 -12 0 -7 -7 -21 -12 -31
-12 -18 0 -19 5 -14 60 4 43 1 64 -8 74 -8 7 -12 24 -9 37 2 13 1 18 -2 10 -4
-7 -16 -23 -27 -34 -18 -18 -21 -18 -29 -3 -16 28 -31 18 -24 -16 3 -18 6 -37
5 -43 -1 -5 -4 -2558 -6 -5672 l-3 -5663 10000 0 10000 0 0 5820 c0 3771 -3
5820 -10 5820 -5 0 -16 -12 -24 -27 -15 -30 -62 -78 -94 -97 -10 -6 -52 -33
-93 -60 -74 -49 -171 -90 -241 -101 -20 -3 -71 -29 -113 -57 -43 -28 -105 -61
-138 -74 -32 -13 -74 -35 -93 -49 -47 -36 -83 -48 -100 -34 -9 7 -42 10 -90 7
-103 -5 -112 -17 -112 -136 0 -118 -8 -177 -33 -242 -11 -30 -25 -68 -31 -85
-5 -16 -13 -39 -18 -50 -7 -17 -28 -80 -37 -110 -27 -98 -33 -125 -33 -157 0
-20 -4 -40 -10 -43 -5 -3 -10 -17 -10 -30 0 -14 -11 -32 -27 -44 -16 -11 -35
-27 -43 -34 -13 -12 -69 -43 -121 -68 -9 -4 -26 -5 -38 -2 -12 3 -21 1 -21 -6
0 -7 -22 10 -50 37 -27 27 -50 56 -50 65 0 8 -7 17 -15 21 -45 17 -34 119 20
191 17 22 33 41 38 43 4 2 7 9 7 16 0 7 9 21 19 30 11 10 23 32 27 50 3 17 11
37 16 44 17 20 10 123 -8 143 -9 10 -13 22 -10 27 3 5 -16 35 -42 68 -52 65
-102 139 -102 151 0 5 -11 31 -25 58 -13 28 -25 56 -25 64 0 7 -8 28 -19 45
-10 17 -24 49 -31 71 -7 22 -20 50 -28 63 -9 14 -15 49 -16 90 0 37 -4 65 -7
62 -4 -3 -15 3 -25 12 -11 9 -21 16 -24 16 -6 0 -53 19 -89 36 -27 12 -127
125 -168 189 -15 23 -46 62 -68 87 -47 52 -94 143 -110 215 -6 27 -10 86 -8
130 3 83 -18 197 -42 225 -7 8 -16 28 -19 45 -4 16 -13 33 -19 37 -17 11 -57
10 -57 -2 0 -5 -9 -20 -21 -32 -67 -74 -104 -108 -115 -108 -7 0 -17 -6 -21
-13 -17 -27 -58 -39 -99 -29 -21 5 -52 10 -68 11 -35 1 -80 47 -107 110 -11
24 -28 55 -39 70 -10 15 -20 34 -22 42 -2 8 -10 19 -18 25 -21 17 -19 112 5
167 4 10 5 31 2 47 -4 16 -2 32 3 35 6 3 10 14 10 23 0 9 12 28 25 41 14 13
25 28 25 33 0 17 -63 108 -74 108 -6 0 -4 5 4 10 8 5 10 10 4 10 -6 0 -14 14
-18 31 -3 17 -15 44 -27 61 -20 27 -26 69 -19 128 1 8 0 32 -1 53 l-2 37 -332
0 -333 0 -8 -47z m-1486 -6709 c26 -7 52 -51 52 -88 0 -53 -102 -96 -142 -60
-44 40 -40 90 10 131 28 24 42 27 80 17z"/>
</g>
</svg>
